<?xml version="1.0" standalone="no"?>
<!DOCTYPE svg PUBLIC "-//W3C//DTD SVG 20010904//EN"
 "http://www.w3.org/TR/2001/REC-SVG-20010904/DTD/svg10.dtd"
 >
 
<svg version="1.0" xmlns="http://www.w3.org/2000/svg"

fill="#ffffff" stroke="#ffffff" width="30px" height="auto" viewBox="0 0 512.000000 512.000000"
 preserveAspectRatio="xMidYMid meet">

<g transform="translate(0) scale(1)">
<path d="M2475 4891 c-91 -24 -171 -80 -217 -151 l-33 -49 -328 -3 -329 -3
-19 -24 c-17 -21 -19 -41 -19 -192 l0 -169 -103 0 c-172 0 -277 -39 -379 -142
-64 -65 -111 -153 -127 -242 -15 -83 -15 -3228 0 -3312 23 -129 114 -256 229
-322 113 -65 64 -63 1445 -60 l1250 3 58 23 c126 51 230 159 279 287 l23 60 3
1625 c2 1156 0 1644 -8 1690 -16 93 -62 181 -128 248 -102 103 -207 142 -379
142 l-103 0 0 169 c0 151 -2 171 -19 192 l-19 24 -329 3 -328 3 -33 49 c-35
55 -93 102 -162 132 -49 22 -176 33 -225 19z m156 -142 c86 -26 159 -126 159
-220 0 -101 -90 -207 -190 -224 -99 -17 -196 33 -242 124 -48 94 -33 186 42
261 64 65 143 85 231 59z m-437 -259 c4 -36 20 -85 40 -125 l33 -65 -299 0
-298 0 0 125 0 125 259 0 258 0 7 -60z m1256 -65 l0 -125 -298 0 -299 0 33 65
c20 40 36 89 40 125 l7 60 258 0 259 0 0 -125z m432 -298 c67 -33 121 -90 157
-166 l26 -56 0 -1645 0 -1645 -33 -67 c-36 -73 -86 -123 -161 -160 l-46 -23
-1265 0 -1265 0 -46 23 c-75 37 -125 87 -161 160 l-33 67 0 1645 0 1645 28 60
c43 93 109 152 200 181 34 10 283 12 1292 11 l1250 -2 57 -28z"/>
<path d="M1305 4004 c-45 -23 -76 -55 -96 -99 -18 -38 -19 -106 -19 -1635 0
-1067 4 -1607 10 -1632 14 -50 55 -97 105 -119 38 -18 98 -19 1255 -19 1157 0
1217 1 1255 19 50 22 91 70 105 120 7 27 9 557 8 1643 -3 1583 -3 1603 -23
1637 -11 19 -37 48 -58 65 l-39 31 -1236 3 c-1107 2 -1240 0 -1267 -14z m2467
-141 c17 -15 18 -78 18 -1601 0 -1461 -1 -1587 -17 -1604 -15 -17 -66 -18
-1211 -18 -1098 0 -1197 1 -1214 17 -17 15 -18 78 -18 1604 0 1430 2 1589 16
1603 14 14 137 16 1211 16 1099 0 1198 -1 1215 -17z"/>
<path d="M1996 3301 l-161 -160 -68 65 c-75 72 -103 79 -142 39 -42 -41 -34
-60 78 -172 83 -83 109 -103 132 -103 24 0 61 31 224 194 169 168 194 198 194
225 0 41 -28 71 -66 71 -26 0 -55 -24 -191 -159z"/>
<path d="M2590 3440 c-29 -29 -26 -74 6 -99 26 -21 37 -21 454 -21 417 0 428
0 454 21 32 25 35 70 6 99 -19 19 -33 20 -460 20 -427 0 -441 -1 -460 -20z"/>
<path d="M2596 3089 c-33 -26 -34 -68 -3 -97 23 -22 25 -22 460 -22 424 0 438
1 457 20 29 29 26 74 -6 99 -26 21 -37 21 -454 21 -417 0 -428 0 -454 -21z"/>
<path d="M2155 2500 c-11 -5 -87 -76 -170 -159 -82 -83 -154 -151 -160 -151
-6 0 -37 27 -70 60 -65 66 -106 78 -138 42 -37 -41 -23 -71 81 -173 53 -53
105 -99 115 -103 10 -3 28 -1 40 5 31 16 366 349 383 381 18 35 18 51 -3 76
-22 25 -51 33 -78 22z"/>
<path d="M2595 2485 c-30 -29 -32 -68 -5 -95 19 -19 33 -20 460 -20 427 0 441
1 460 20 29 29 26 74 -6 99 -26 21 -37 21 -456 21 l-429 0 -24 -25z"/>
<path d="M2590 2130 c-25 -25 -26 -61 -1 -91 l19 -24 442 0 442 0 19 24 c23
28 24 59 3 89 l-15 22 -445 0 c-431 0 -445 -1 -464 -20z"/>
<path d="M1983 1388 l-162 -162 -70 67 c-76 74 -103 82 -139 44 -42 -45 -31
-69 81 -177 73 -72 109 -100 127 -100 20 0 70 45 223 198 211 211 221 228 177
272 -43 43 -64 31 -237 -142z"/>
<path d="M2590 1530 c-27 -27 -25 -66 5 -95 l24 -25 429 0 c419 0 430 0 456
21 32 25 35 70 6 99 -19 19 -33 20 -460 20 -427 0 -441 -1 -460 -20z"/>
<path d="M2596 1179 c-33 -26 -34 -68 -3 -97 23 -22 25 -22 458 -22 l436 0 21
23 c30 32 28 71 -4 96 -26 21 -37 21 -454 21 -417 0 -428 0 -454 -21z"/>
</g>
</svg>
